<svg width="350" height="350" viewBox="0 0 350 350" fill="none" xmlns="http://www.w3.org/2000/svg">
<rect width="350" height="350" fill="#051A27"/>
<path d="M137.475 208.34V211H111.92V208.34L117.145 207.675C118.158 207.548 118.76 207.295 118.95 206.915C119.14 206.472 119.235 205.173 119.235 203.02V179.08C119.235 174.71 118.57 171.543 117.24 169.58C115.973 167.553 114.073 166.54 111.54 166.54C110.463 166.54 109.197 166.825 107.74 167.395C106.347 167.902 104.922 168.852 103.465 170.245C102.072 171.638 100.837 173.697 99.76 176.42V203.02C99.76 205.173 99.855 206.472 100.045 206.915C100.235 207.295 100.837 207.548 101.85 207.675L107.075 208.34V211H81.52V208.34L86.745 207.675C87.7583 207.548 88.36 207.295 88.55 206.915C88.74 206.472 88.835 205.173 88.835 203.02V148.68C88.835 146.527 88.74 145.26 88.55 144.88C88.36 144.437 87.7583 144.152 86.745 144.025L81.52 143.36V140.7H99.76V170.245C101.597 167.332 103.877 165.21 106.6 163.88C109.387 162.55 112.173 161.885 114.96 161.885C119.647 161.885 123.352 163.373 126.075 166.35C128.798 169.327 130.16 173.538 130.16 178.985V203.02C130.16 205.173 130.255 206.472 130.445 206.915C130.635 207.295 131.237 207.548 132.25 207.675L137.475 208.34Z" fill="#F24822"/>
<path d="M145.512 189.837H147.14V191.465H145.512V189.837ZM147.14 189.837H148.767V191.465H147.14V189.837ZM147.14 191.465H148.767V193.093H147.14V191.465ZM148.767 189.837H150.395V191.465H148.767V189.837ZM143.884 189.837H145.512V191.465H143.884V189.837ZM143.884 191.465H145.512V193.093H143.884V191.465ZM143.884 194.721H145.512V196.349H143.884V194.721ZM143.884 196.349H145.512V197.977H143.884V196.349ZM143.884 197.977H145.512V199.605H143.884V197.977ZM143.884 199.605H145.512V201.233H143.884V199.605ZM143.884 201.233H145.512V202.86H143.884V201.233ZM143.884 202.86H145.512V204.488H143.884V202.86ZM145.512 202.86H147.14V204.488H145.512V202.86ZM147.14 202.86H148.767V204.488H147.14V202.86ZM147.14 201.233H148.767V202.86H147.14V201.233ZM148.767 201.233H150.395V202.86H148.767V201.233ZM148.767 199.605H150.395V201.233H148.767V199.605ZM148.767 196.349H150.395V197.977H148.767V196.349ZM148.767 194.721H150.395V196.349H148.767V194.721ZM148.767 193.093H150.395V194.721H148.767V193.093ZM148.767 191.465H150.395V193.093H148.767V191.465ZM147.14 193.093H148.767V194.721H147.14V193.093ZM147.14 194.721H148.767V196.349H147.14V194.721ZM147.14 196.349H148.767V197.977H147.14V196.349ZM147.14 197.977H148.767V199.605H147.14V197.977ZM147.14 199.605H148.767V201.233H147.14V199.605ZM148.767 197.977H150.395V199.605H148.767V197.977ZM145.512 197.977H147.14V199.605H145.512V197.977ZM145.512 196.349H147.14V197.977H145.512V196.349ZM145.512 194.721H147.14V196.349H145.512V194.721ZM145.512 193.093H147.14V194.721H145.512V193.093ZM145.512 191.465H147.14V193.093H145.512V191.465ZM143.884 193.093H145.512V194.721H143.884V193.093ZM145.512 199.605H147.14V201.233H145.512V199.605ZM145.512 201.233H147.14V202.86H145.512V201.233ZM142.256 206.116H143.884V207.744H142.256V206.116ZM140.628 206.116H142.256V207.744H140.628V206.116ZM140.628 204.488H142.256V206.116H140.628V204.488ZM142.256 204.488H143.884V206.116H142.256V204.488ZM143.884 204.488H145.512V206.116H143.884V204.488ZM143.884 206.116H145.512V207.744H143.884V206.116ZM145.512 206.116H147.14V207.744H145.512V206.116ZM147.14 206.116H148.767V207.744H147.14V206.116ZM148.767 206.116H150.395V207.744H148.767V206.116ZM148.767 204.488H150.395V206.116H148.767V204.488ZM148.767 202.86H150.395V204.488H148.767V202.86ZM147.14 204.488H148.767V206.116H147.14V204.488ZM145.512 204.488H147.14V206.116H145.512V204.488ZM147.14 207.744H148.767V209.372H147.14V207.744ZM147.14 209.372H148.767V211H147.14V209.372ZM148.767 209.372H150.395V211H148.767V209.372ZM148.767 207.744H150.395V209.372H148.767V207.744ZM150.395 206.116H152.023V207.744H150.395V206.116ZM150.395 204.488H152.023V206.116H150.395V204.488ZM152.023 204.488H153.651V206.116H152.023V204.488ZM152.023 206.116H153.651V207.744H152.023V206.116ZM152.023 207.744H153.651V209.372H152.023V207.744ZM152.023 209.372H153.651V211H152.023V209.372ZM150.395 209.372H152.023V211H150.395V209.372ZM150.395 207.744H152.023V209.372H150.395V207.744ZM153.651 204.488H155.279V206.116H153.651V204.488ZM155.279 204.488H156.907V206.116H155.279V204.488ZM155.279 206.116H156.907V207.744H155.279V206.116ZM153.651 206.116H155.279V207.744H153.651V206.116ZM156.907 204.488H158.535V206.116H156.907V204.488ZM158.535 204.488H160.163V206.116H158.535V204.488ZM156.907 206.116H158.535V207.744H156.907V206.116ZM156.907 202.86H158.535V204.488H156.907V202.86ZM156.907 201.233H158.535V202.86H156.907V201.233ZM158.535 201.233H160.163V202.86H158.535V201.233ZM158.535 202.86H160.163V204.488H158.535V202.86ZM160.163 201.233H161.791V202.86H160.163V201.233ZM161.791 199.605H163.419V201.233H161.791V199.605ZM161.791 197.977H163.419V199.605H161.791V197.977ZM161.791 196.349H163.419V197.977H161.791V196.349ZM160.163 196.349H161.791V197.977H160.163V196.349ZM158.535 196.349H160.163V197.977H158.535V196.349ZM158.535 197.977H160.163V199.605H158.535V197.977ZM156.907 197.977H158.535V199.605H156.907V197.977ZM156.907 199.605H158.535V201.233H156.907V199.605ZM158.535 199.605H160.163V201.233H158.535V199.605ZM160.163 199.605H161.791V201.233H160.163V199.605ZM160.163 197.977H161.791V199.605H160.163V197.977ZM156.907 196.349H158.535V197.977H156.907V196.349ZM156.907 194.721H158.535V196.349H156.907V194.721ZM158.535 194.721H160.163V196.349H158.535V194.721ZM158.535 193.093H160.163V194.721H158.535V193.093ZM160.163 193.093H161.791V194.721H160.163V193.093ZM161.791 193.093H163.419V194.721H161.791V193.093ZM161.791 194.721H163.419V196.349H161.791V194.721ZM160.163 194.721H161.791V196.349H160.163V194.721ZM156.907 193.093H158.535V194.721H156.907V193.093ZM156.907 191.465H158.535V193.093H156.907V191.465ZM158.535 191.465H160.163V193.093H158.535V191.465ZM158.535 189.837H160.163V191.465H158.535V189.837ZM160.163 189.837H161.791V191.465H160.163V189.837ZM161.791 189.837H163.419V191.465H161.791V189.837ZM161.791 191.465H163.419V193.093H161.791V191.465ZM160.163 191.465H161.791V193.093H160.163V191.465ZM156.907 189.837H158.535V191.465H156.907V189.837ZM150.395 183.326H152.023V184.953H150.395V183.326ZM150.395 184.953H152.023V186.581H150.395V184.953ZM152.023 184.953H153.651V186.581H152.023V184.953ZM152.023 183.326H153.651V184.953H152.023V183.326ZM148.767 186.581H150.395V188.209H148.767V186.581ZM147.14 186.581H148.767V188.209H147.14V186.581ZM148.767 188.209H150.395V189.837H148.767V188.209ZM147.14 188.209H148.767V189.837H147.14V188.209ZM153.651 183.326H155.279V184.953H153.651V183.326ZM155.279 183.326H156.907V184.953H155.279V183.326ZM155.279 184.953H156.907V186.581H155.279V184.953ZM153.651 184.953H155.279V186.581H153.651V184.953ZM156.907 183.326H158.535V184.953H156.907V183.326ZM158.535 183.326H160.163V184.953H158.535V183.326ZM158.535 184.953H160.163V186.581H158.535V184.953ZM156.907 184.953H158.535V186.581H156.907V184.953ZM163.419 188.209H165.047V189.837H163.419V188.209ZM163.419 186.581H165.047V188.209H163.419V186.581ZM165.047 186.581H166.674V188.209H165.047V186.581ZM165.047 188.209H166.674V189.837H165.047V188.209ZM161.791 186.581H163.419V188.209H161.791V186.581ZM160.163 186.581H161.791V188.209H160.163V186.581ZM158.535 186.581H160.163V188.209H158.535V186.581ZM156.907 186.581H158.535V188.209H156.907V186.581ZM158.535 188.209H160.163V189.837H158.535V188.209ZM160.163 188.209H161.791V189.837H160.163V188.209ZM161.791 188.209H163.419V189.837H161.791V188.209ZM156.907 188.209H158.535V189.837H156.907V188.209ZM145.512 207.744H147.14V209.372H145.512V207.744ZM160.163 184.953H161.791V186.581H160.163V184.953ZM145.512 188.209H147.14V189.837H145.512V188.209ZM153.651 207.744H155.279V209.372H153.651V207.744ZM160.163 202.86H161.791V204.488H160.163V202.86ZM161.791 201.233H163.419V202.86H161.791V201.233ZM161.791 202.86H163.419V204.488H161.791V202.86ZM161.791 204.488H163.419V206.116H161.791V204.488ZM160.163 204.488H161.791V206.116H160.163V204.488ZM163.419 204.488H165.047V206.116H163.419V204.488ZM165.047 204.488H166.674V206.116H165.047V204.488ZM165.047 206.116H166.674V207.744H165.047V206.116ZM163.419 206.116H165.047V207.744H163.419V206.116ZM160.163 206.116H161.791V207.744H160.163V206.116ZM158.535 206.116H160.163V207.744H158.535V206.116ZM161.791 206.116H163.419V207.744H161.791V206.116ZM160.163 207.744H161.791V209.372H160.163V207.744ZM158.535 207.744H160.163V209.372H158.535V207.744ZM161.791 207.744H163.419V209.372H161.791V207.744ZM163.419 207.744H165.047V209.372H163.419V207.744ZM161.791 209.372H163.419V211H161.791V209.372ZM158.535 209.372H160.163V211H158.535V209.372ZM160.163 209.372H161.791V211H160.163V209.372ZM148.767 184.953H150.395V186.581H148.767V184.953ZM168.326 207.744H169.954V209.372H168.326V207.744ZM168.326 209.372H169.954V211H168.326V209.372ZM169.954 207.744H171.582V209.372H169.954V207.744ZM178.094 199.605H179.722V201.233H178.094V199.605ZM179.722 197.977H181.349V199.605H179.722V197.977ZM178.094 197.977H179.722V199.605H178.094V197.977ZM179.722 196.349H181.349V197.977H179.722V196.349ZM181.349 196.349H182.977V197.977H181.349V196.349ZM181.349 194.721H182.977V196.349H181.349V194.721ZM182.977 194.721H184.605V196.349H182.977V194.721ZM182.977 196.349H184.605V197.977H182.977V196.349ZM182.977 193.093H184.605V194.721H182.977V193.093ZM173.21 189.837H174.838V191.465H173.21V189.837ZM174.838 189.837H176.466V191.465H174.838V189.837ZM174.838 191.465H176.466V193.093H174.838V191.465ZM176.466 189.837H178.094V191.465H176.466V189.837ZM171.582 189.837H173.21V191.465H171.582V189.837ZM171.582 191.465H173.21V193.093H171.582V191.465ZM174.838 202.86H176.466V204.488H174.838V202.86ZM174.838 201.233H176.466V202.86H174.838V201.233ZM176.466 201.233H178.094V202.86H176.466V201.233ZM176.466 199.605H178.094V201.233H176.466V199.605ZM176.466 196.349H178.094V197.977H176.466V196.349ZM176.466 194.721H178.094V196.349H176.466V194.721ZM176.466 193.093H178.094V194.721H176.466V193.093ZM176.466 191.465H178.094V193.093H176.466V191.465ZM174.838 193.093H176.466V194.721H174.838V193.093ZM174.838 194.721H176.466V196.349H174.838V194.721ZM174.838 196.349H176.466V197.977H174.838V196.349ZM173.21 194.721H174.838V196.349H173.21V194.721ZM173.21 193.093H174.838V194.721H173.21V193.093ZM173.21 191.465H174.838V193.093H173.21V191.465ZM171.582 193.093H173.21V194.721H171.582V193.093ZM169.954 206.116H171.582V207.744H169.954V206.116ZM171.582 204.488H173.21V206.116H171.582V204.488ZM171.582 206.116H173.21V207.744H171.582V206.116ZM173.21 206.116H174.838V207.744H173.21V206.116ZM174.838 206.116H176.466V207.744H174.838V206.116ZM176.466 206.116H178.094V207.744H176.466V206.116ZM176.466 204.488H178.094V206.116H176.466V204.488ZM174.838 204.488H176.466V206.116H174.838V204.488ZM173.21 204.488H174.838V206.116H173.21V204.488ZM178.094 206.116H179.722V207.744H178.094V206.116ZM179.722 206.116H181.349V207.744H179.722V206.116ZM179.722 207.744H181.349V209.372H179.722V207.744ZM179.722 209.372H181.349V211H179.722V209.372ZM178.094 209.372H179.722V211H178.094V209.372ZM178.094 207.744H179.722V209.372H178.094V207.744ZM182.977 204.488H184.605V206.116H182.977V204.488ZM182.977 206.116H184.605V207.744H182.977V206.116ZM181.349 206.116H182.977V207.744H181.349V206.116ZM184.605 204.488H186.233V206.116H184.605V204.488ZM186.233 204.488H187.861V206.116H186.233V204.488ZM184.605 206.116H186.233V207.744H184.605V206.116ZM184.605 202.86H186.233V204.488H184.605V202.86ZM186.233 201.233H187.861V202.86H186.233V201.233ZM186.233 202.86H187.861V204.488H186.233V202.86ZM187.861 201.233H189.489V202.86H187.861V201.233ZM189.489 199.605H191.117V201.233H189.489V199.605ZM189.489 197.977H191.117V199.605H189.489V197.977ZM187.861 196.349H189.489V197.977H187.861V196.349ZM186.233 196.349H187.861V197.977H186.233V196.349ZM186.233 197.977H187.861V199.605H186.233V197.977ZM186.233 199.605H187.861V201.233H186.233V199.605ZM187.861 199.605H189.489V201.233H187.861V199.605ZM187.861 197.977H189.489V199.605H187.861V197.977ZM184.605 196.349H186.233V197.977H184.605V196.349ZM184.605 194.721H186.233V196.349H184.605V194.721ZM186.233 194.721H187.861V196.349H186.233V194.721ZM184.605 193.093H186.233V194.721H184.605V193.093ZM187.861 189.837H189.489V191.465H187.861V189.837ZM178.094 183.326H179.722V184.953H178.094V183.326ZM178.094 184.953H179.722V186.581H178.094V184.953ZM179.722 184.953H181.349V186.581H179.722V184.953ZM179.722 183.326H181.349V184.953H179.722V183.326ZM176.466 186.581H178.094V188.209H176.466V186.581ZM174.838 186.581H176.466V188.209H174.838V186.581ZM176.466 188.209H178.094V189.837H176.466V188.209ZM174.838 188.209H176.466V189.837H174.838V188.209ZM181.349 186.581H182.977V188.209H181.349V186.581ZM182.977 188.209H184.605V189.837H182.977V188.209ZM182.977 186.581H184.605V188.209H182.977V186.581ZM181.349 183.326H182.977V184.953H181.349V183.326ZM182.977 183.326H184.605V184.953H182.977V183.326ZM182.977 184.953H184.605V186.581H182.977V184.953ZM181.349 184.953H182.977V186.581H181.349V184.953ZM184.605 184.953H186.233V186.581H184.605V184.953ZM189.489 186.581H191.117V188.209H189.489V186.581ZM186.233 186.581H187.861V188.209H186.233V186.581ZM184.605 186.581H186.233V188.209H184.605V186.581ZM186.233 188.209H187.861V189.837H186.233V188.209ZM187.861 188.209H189.489V189.837H187.861V188.209ZM184.605 188.209H186.233V189.837H184.605V188.209ZM173.21 188.209H174.838V189.837H173.21V188.209ZM181.349 207.744H182.977V209.372H181.349V207.744ZM187.861 202.86H189.489V204.488H187.861V202.86ZM189.489 201.233H191.117V202.86H189.489V201.233ZM191.117 184.953H192.745V186.581H191.117V184.953ZM176.466 207.744H178.094V209.372H176.466V207.744ZM173.21 202.86H174.838V204.488H173.21V202.86ZM178.094 196.349H179.722V197.977H178.094V196.349ZM178.094 194.721H179.722V196.349H178.094V194.721ZM179.722 194.721H181.349V196.349H179.722V194.721ZM178.094 193.093H179.722V194.721H178.094V193.093ZM176.466 197.977H178.094V199.605H176.466V197.977ZM189.489 184.953H191.117V186.581H189.489V184.953ZM189.489 183.326H191.117V184.953H189.489V183.326ZM191.117 183.326H192.745V184.953H191.117V183.326ZM186.233 191.465H187.861V193.093H186.233V191.465ZM186.233 189.837H187.861V191.465H186.233V189.837ZM182.977 207.744H184.605V209.372H182.977V207.744ZM181.349 209.372H182.977V211H181.349V209.372ZM184.605 191.465H186.233V193.093H184.605V191.465ZM181.349 193.093H182.977V194.721H181.349V193.093ZM182.977 191.465H184.605V193.093H182.977V191.465ZM184.605 189.837H186.233V191.465H184.605V189.837ZM191.117 186.581H192.745V188.209H191.117V186.581ZM189.489 181.698H191.117V183.326H189.489V181.698ZM191.117 181.698H192.745V183.326H191.117V181.698ZM171.582 194.721H173.21V196.349H171.582V194.721ZM171.582 196.349H173.21V197.977H171.582V196.349ZM173.21 196.349H174.838V197.977H173.21V196.349ZM174.838 197.977H176.466V199.605H174.838V197.977ZM173.21 197.977H174.838V199.605H173.21V197.977ZM189.489 196.349H191.117V197.977H189.489V196.349ZM187.861 194.721H189.489V196.349H187.861V194.721ZM174.838 207.744H176.466V209.372H174.838V207.744ZM176.466 209.372H178.094V211H176.466V209.372ZM184.605 197.977H186.233V199.605H184.605V197.977ZM184.605 199.605H186.233V201.233H184.605V199.605ZM184.605 201.233H186.233V202.86H184.605V201.233ZM213.906 209.372H215.534V211H213.906V209.372ZM215.534 209.372H217.162V211H215.534V209.372ZM217.162 209.372H218.79V211H217.162V209.372ZM212.278 207.744H213.906V209.372H212.278V207.744ZM213.906 207.744H215.534V209.372H213.906V207.744ZM215.534 207.744H217.162V209.372H215.534V207.744ZM217.162 207.744H218.79V209.372H217.162V207.744ZM212.278 206.116H213.906V207.744H212.278V206.116ZM212.278 204.488H213.906V206.116H212.278V204.488ZM213.906 204.488H215.534V206.116H213.906V204.488ZM213.906 206.116H215.534V207.744H213.906V206.116ZM215.534 206.116H217.162V207.744H215.534V206.116ZM217.162 206.116H218.79V207.744H217.162V206.116ZM217.162 204.488H218.79V206.116H217.162V204.488ZM215.534 204.488H217.162V206.116H215.534V204.488ZM213.906 202.86H215.534V204.488H213.906V202.86ZM215.534 202.86H217.162V204.488H215.534V202.86ZM217.162 202.86H218.79V204.488H217.162V202.86ZM217.162 201.233H218.79V202.86H217.162V201.233ZM215.534 201.233H217.162V202.86H215.534V201.233ZM213.906 201.233H215.534V202.86H213.906V201.233ZM213.906 199.605H215.534V201.233H213.906V199.605ZM213.906 197.977H215.534V199.605H213.906V197.977ZM213.906 196.349H215.534V197.977H213.906V196.349ZM213.906 194.721H215.534V196.349H213.906V194.721ZM213.906 193.093H215.534V194.721H213.906V193.093ZM215.534 193.093H217.162V194.721H215.534V193.093ZM217.162 193.093H218.79V194.721H217.162V193.093ZM217.162 194.721H218.79V196.349H217.162V194.721ZM217.162 196.349H218.79V197.977H217.162V196.349ZM217.162 197.977H218.79V199.605H217.162V197.977ZM215.534 197.977H217.162V199.605H215.534V197.977ZM215.534 199.605H217.162V201.233H215.534V199.605ZM215.534 196.349H217.162V197.977H215.534V196.349ZM215.534 194.721H217.162V196.349H215.534V194.721ZM217.162 199.605H218.79V201.233H217.162V199.605ZM217.162 191.465H218.79V193.093H217.162V191.465ZM217.162 189.837H218.79V191.465H217.162V189.837ZM217.162 188.209H218.79V189.837H217.162V188.209ZM217.162 186.581H218.79V188.209H217.162V186.581ZM217.162 184.953H218.79V186.581H217.162V184.953ZM213.906 184.953H215.534V186.581H213.906V184.953ZM215.534 186.581H217.162V188.209H215.534V186.581ZM215.534 188.209H217.162V189.837H215.534V188.209ZM215.534 189.837H217.162V191.465H215.534V189.837ZM215.534 191.465H217.162V193.093H215.534V191.465ZM213.906 191.465H215.534V193.093H213.906V191.465ZM213.906 189.837H215.534V191.465H213.906V189.837ZM213.906 188.209H215.534V189.837H213.906V188.209ZM213.906 186.581H215.534V188.209H213.906V186.581ZM215.534 184.953H217.162V186.581H215.534V184.953ZM212.278 202.86H213.906V204.488H212.278V202.86ZM212.278 201.233H213.906V202.86H212.278V201.233ZM212.278 199.605H213.906V201.233H212.278V199.605ZM212.278 197.977H213.906V199.605H212.278V197.977ZM212.278 196.349H213.906V197.977H212.278V196.349ZM212.278 194.721H213.906V196.349H212.278V194.721ZM212.278 193.093H213.906V194.721H212.278V193.093ZM212.278 191.465H213.906V193.093H212.278V191.465ZM212.278 189.837H213.906V191.465H212.278V189.837ZM212.278 188.209H213.906V189.837H212.278V188.209ZM212.278 184.953H213.906V186.581H212.278V184.953ZM212.278 186.581H213.906V188.209H212.278V186.581ZM213.906 183.326H215.534V184.953H213.906V183.326ZM215.534 183.326H217.162V184.953H215.534V183.326ZM218.79 186.581H220.418V188.209H218.79V186.581ZM209.022 186.581H210.65V188.209H209.022V186.581ZM209.022 184.953H210.65V186.581H209.022V184.953ZM210.65 184.953H212.278V186.581H210.65V184.953ZM210.65 183.326H212.278V184.953H210.65V183.326ZM212.278 183.326H213.906V184.953H212.278V183.326ZM220.418 188.209H222.046V189.837H220.418V188.209ZM218.79 188.209H220.418V189.837H218.79V188.209ZM220.418 186.581H222.046V188.209H220.418V186.581ZM200.883 209.372H202.511V211H200.883V209.372ZM202.511 209.372H204.139V211H202.511V209.372ZM199.255 207.744H200.883V209.372H199.255V207.744ZM200.883 207.744H202.511V209.372H200.883V207.744ZM202.511 207.744H204.139V209.372H202.511V207.744ZM204.139 207.744H205.766V209.372H204.139V207.744ZM197.627 206.116H199.255V207.744H197.627V206.116ZM199.255 206.116H200.883V207.744H199.255V206.116ZM199.255 204.488H200.883V206.116H199.255V204.488ZM200.883 204.488H202.511V206.116H200.883V204.488ZM200.883 206.116H202.511V207.744H200.883V206.116ZM202.511 206.116H204.139V207.744H202.511V206.116ZM204.139 206.116H205.766V207.744H204.139V206.116ZM204.139 204.488H205.766V206.116H204.139V204.488ZM205.766 206.116H207.394V207.744H205.766V206.116ZM202.511 204.488H204.139V206.116H202.511V204.488ZM200.883 202.86H202.511V204.488H200.883V202.86ZM202.511 202.86H204.139V204.488H202.511V202.86ZM204.139 202.86H205.766V204.488H204.139V202.86ZM204.139 201.233H205.766V202.86H204.139V201.233ZM202.511 201.233H204.139V202.86H202.511V201.233ZM200.883 201.233H202.511V202.86H200.883V201.233ZM200.883 199.605H202.511V201.233H200.883V199.605ZM200.883 197.977H202.511V199.605H200.883V197.977ZM200.883 196.349H202.511V197.977H200.883V196.349ZM200.883 194.721H202.511V196.349H200.883V194.721ZM200.883 193.093H202.511V194.721H200.883V193.093ZM202.511 193.093H204.139V194.721H202.511V193.093ZM204.139 193.093H205.766V194.721H204.139V193.093ZM204.139 194.721H205.766V196.349H204.139V194.721ZM204.139 196.349H205.766V197.977H204.139V196.349ZM204.139 197.977H205.766V199.605H204.139V197.977ZM202.511 197.977H204.139V199.605H202.511V197.977ZM202.511 199.605H204.139V201.233H202.511V199.605ZM202.511 196.349H204.139V197.977H202.511V196.349ZM202.511 194.721H204.139V196.349H202.511V194.721ZM204.139 199.605H205.766V201.233H204.139V199.605ZM204.139 191.465H205.766V193.093H204.139V191.465ZM204.139 189.837H205.766V191.465H204.139V189.837ZM204.139 188.209H205.766V189.837H204.139V188.209ZM204.139 186.581H205.766V188.209H204.139V186.581ZM204.139 184.953H205.766V186.581H204.139V184.953ZM204.139 183.326H205.766V184.953H204.139V183.326ZM204.139 180.07H205.766V181.698H204.139V180.07ZM204.139 178.442H205.766V180.07H204.139V178.442ZM204.139 176.814H205.766V178.442H204.139V176.814ZM204.139 175.186H205.766V176.814H204.139V175.186ZM204.139 173.558H205.766V175.186H204.139V173.558ZM204.139 171.93H205.766V173.558H204.139V171.93ZM204.139 170.302H205.766V171.93H204.139V170.302ZM200.883 173.558H202.511V175.186H200.883V173.558ZM200.883 175.186H202.511V176.814H200.883V175.186ZM200.883 176.814H202.511V178.442H200.883V176.814ZM200.883 178.442H202.511V180.07H200.883V178.442ZM200.883 180.07H202.511V181.698H200.883V180.07ZM200.883 183.326H202.511V184.953H200.883V183.326ZM200.883 184.953H202.511V186.581H200.883V184.953ZM202.511 186.581H204.139V188.209H202.511V186.581ZM202.511 188.209H204.139V189.837H202.511V188.209ZM202.511 189.837H204.139V191.465H202.511V189.837ZM202.511 191.465H204.139V193.093H202.511V191.465ZM200.883 191.465H202.511V193.093H200.883V191.465ZM200.883 189.837H202.511V191.465H200.883V189.837ZM200.883 188.209H202.511V189.837H200.883V188.209ZM200.883 186.581H202.511V188.209H200.883V186.581ZM202.511 184.953H204.139V186.581H202.511V184.953ZM202.511 183.326H204.139V184.953H202.511V183.326ZM202.511 180.07H204.139V181.698H202.511V180.07ZM202.511 178.442H204.139V180.07H202.511V178.442ZM202.511 176.814H204.139V178.442H202.511V176.814ZM202.511 175.186H204.139V176.814H202.511V175.186ZM202.511 173.558H204.139V175.186H202.511V173.558ZM202.511 171.93H204.139V173.558H202.511V171.93ZM199.255 202.86H200.883V204.488H199.255V202.86ZM199.255 201.233H200.883V202.86H199.255V201.233ZM199.255 199.605H200.883V201.233H199.255V199.605ZM199.255 197.977H200.883V199.605H199.255V197.977ZM199.255 196.349H200.883V197.977H199.255V196.349ZM199.255 194.721H200.883V196.349H199.255V194.721ZM199.255 193.093H200.883V194.721H199.255V193.093ZM199.255 191.465H200.883V193.093H199.255V191.465ZM199.255 189.837H200.883V191.465H199.255V189.837ZM199.255 188.209H200.883V189.837H199.255V188.209ZM199.255 184.953H200.883V186.581H199.255V184.953ZM199.255 180.07H200.883V181.698H199.255V180.07ZM199.255 178.442H200.883V180.07H199.255V178.442ZM199.255 176.814H200.883V178.442H199.255V176.814ZM199.255 183.326H200.883V184.953H199.255V183.326ZM199.255 186.581H200.883V188.209H199.255V186.581ZM199.255 175.186H200.883V176.814H199.255V175.186ZM199.255 181.698H200.883V183.326H199.255V181.698ZM200.883 181.698H202.511V183.326H200.883V181.698ZM202.511 181.698H204.139V183.326H202.511V181.698ZM204.139 181.698H205.766V183.326H204.139V181.698ZM195.999 204.488H197.627V206.116H195.999V204.488ZM197.627 204.488H199.255V206.116H197.627V204.488ZM205.766 204.488H207.394V206.116H205.766V204.488ZM205.766 188.209H207.394V189.837H205.766V188.209ZM207.394 188.209H209.022V189.837H207.394V188.209ZM207.394 186.581H209.022V188.209H207.394V186.581ZM212.278 209.372H213.906V211H212.278V209.372ZM213.906 211H215.534V212.628H213.906V211ZM212.278 211H213.906V212.628H212.278V211ZM210.65 211H212.278V212.628H210.65V211ZM210.65 212.628H212.278V214.256H210.65V212.628ZM209.022 212.628H210.65V214.256H209.022V212.628ZM213.906 212.628H215.534V214.256H213.906V212.628ZM212.278 212.628H213.906V214.256H212.278V212.628ZM210.65 214.256H212.278V215.884H210.65V214.256ZM209.022 214.256H210.65V215.884H209.022V214.256ZM207.394 214.256H209.022V215.884H207.394V214.256ZM205.766 215.884H207.394V217.512H205.766V215.884ZM207.394 215.884H209.022V217.512H207.394V215.884ZM210.65 215.884H212.278V217.512H210.65V215.884ZM209.022 215.884H210.65V217.512H209.022V215.884ZM205.766 217.512H207.394V219.14H205.766V217.512ZM207.394 217.512H209.022V219.14H207.394V217.512ZM207.394 219.14H209.022V220.767H207.394V219.14ZM205.766 219.14H207.394V220.767H205.766V219.14ZM209.022 217.512H210.65V219.14H209.022V217.512ZM212.278 214.256H213.906V215.884H212.278V214.256ZM215.534 211H217.162V212.628H215.534V211ZM205.766 189.837H207.394V191.465H205.766V189.837ZM205.766 186.581H207.394V188.209H205.766V186.581ZM207.394 184.953H209.022V186.581H207.394V184.953ZM209.022 183.326H210.65V184.953H209.022V183.326ZM195.999 206.116H197.627V207.744H195.999V206.116ZM199.255 209.372H200.883V211H199.255V209.372ZM207.394 204.488H209.022V206.116H207.394V204.488ZM230.209 207.744H231.837V209.372H230.209V207.744ZM230.209 206.116H231.837V207.744H230.209V206.116ZM230.209 204.488H231.837V206.116H230.209V204.488ZM230.209 202.86H231.837V204.488H230.209V202.86ZM230.209 201.233H231.837V202.86H230.209V201.233ZM230.209 199.605H231.837V201.233H230.209V199.605ZM230.209 197.977H231.837V199.605H230.209V197.977ZM230.209 196.349H231.837V197.977H230.209V196.349ZM230.209 194.721H231.837V196.349H230.209V194.721ZM230.209 193.093H231.837V194.721H230.209V193.093ZM231.837 193.093H233.465V194.721H231.837V193.093ZM233.465 193.093H235.093V194.721H233.465V193.093ZM228.581 193.093H230.209V194.721H228.581V193.093ZM228.581 194.721H230.209V196.349H228.581V194.721ZM228.581 196.349H230.209V197.977H228.581V196.349ZM228.581 197.977H230.209V199.605H228.581V197.977ZM228.581 199.605H230.209V201.233H228.581V199.605ZM228.581 201.233H230.209V202.86H228.581V201.233ZM228.581 202.86H230.209V204.488H228.581V202.86ZM228.581 204.488H230.209V206.116H228.581V204.488ZM228.581 206.116H230.209V207.744H228.581V206.116ZM231.837 206.116H233.465V207.744H231.837V206.116ZM233.465 206.116H235.093V207.744H233.465V206.116ZM233.465 204.488H235.093V206.116H233.465V204.488ZM233.465 202.86H235.093V204.488H233.465V202.86ZM233.465 201.233H235.093V202.86H233.465V201.233ZM233.465 199.605H235.093V201.233H233.465V199.605ZM233.465 197.977H235.093V199.605H233.465V197.977ZM233.465 196.349H235.093V197.977H233.465V196.349ZM233.465 194.721H235.093V196.349H233.465V194.721ZM231.837 194.721H233.465V196.349H231.837V194.721ZM231.837 196.349H233.465V197.977H231.837V196.349ZM231.837 197.977H233.465V199.605H231.837V197.977ZM231.837 199.605H233.465V201.233H231.837V199.605ZM231.837 201.233H233.465V202.86H231.837V201.233ZM231.837 202.86H233.465V204.488H231.837V202.86ZM231.837 204.488H233.465V206.116H231.837V204.488ZM231.837 207.744H233.465V209.372H231.837V207.744ZM233.465 207.744H235.093V209.372H233.465V207.744ZM233.465 209.372H235.093V211H233.465V209.372ZM231.837 209.372H233.465V211H231.837V209.372ZM235.093 206.116H236.721V207.744H235.093V206.116ZM236.721 206.116H238.348V207.744H236.721V206.116ZM238.348 206.116H239.976V207.744H238.348V206.116ZM233.465 191.465H235.093V193.093H233.465V191.465ZM233.465 189.837H235.093V191.465H233.465V189.837ZM233.465 188.209H235.093V189.837H233.465V188.209ZM233.465 186.581H235.093V188.209H233.465V186.581ZM228.581 189.837H230.209V191.465H228.581V189.837ZM228.581 191.465H230.209V193.093H228.581V191.465ZM230.209 191.465H231.837V193.093H230.209V191.465ZM230.209 189.837H231.837V191.465H230.209V189.837ZM231.837 189.837H233.465V191.465H231.837V189.837ZM231.837 188.209H233.465V189.837H231.837V188.209ZM231.837 186.581H233.465V188.209H231.837V186.581ZM231.837 191.465H233.465V193.093H231.837V191.465ZM236.721 183.326H238.348V184.953H236.721V183.326ZM236.721 184.953H238.348V186.581H236.721V184.953ZM235.093 184.953H236.721V186.581H235.093V184.953ZM238.348 183.326H239.976V184.953H238.348V183.326ZM239.976 183.326H241.604V184.953H239.976V183.326ZM239.976 184.953H241.604V186.581H239.976V184.953ZM238.348 184.953H239.976V186.581H238.348V184.953ZM239.976 186.581H241.604V188.209H239.976V186.581ZM243.232 186.581H244.86V188.209H243.232V186.581ZM243.232 188.209H244.86V189.837H243.232V188.209ZM241.604 188.209H243.232V189.837H241.604V188.209ZM241.604 186.581H243.232V188.209H241.604V186.581ZM230.209 188.209H231.837V189.837H230.209V188.209ZM226.953 206.116H228.581V207.744H226.953V206.116ZM225.325 206.116H226.953V207.744H225.325V206.116ZM225.325 204.488H226.953V206.116H225.325V204.488ZM226.953 204.488H228.581V206.116H226.953V204.488ZM235.093 204.488H236.721V206.116H235.093V204.488ZM236.721 204.488H238.348V206.116H236.721V204.488ZM238.348 204.488H239.976V206.116H238.348V204.488ZM239.976 204.488H241.604V206.116H239.976V204.488ZM235.093 209.372H236.721V211H235.093V209.372ZM235.093 207.744H236.721V209.372H235.093V207.744ZM236.721 207.744H238.348V209.372H236.721V207.744ZM238.348 186.581H239.976V188.209H238.348V186.581ZM239.976 188.209H241.604V189.837H239.976V188.209ZM243.232 189.837H244.86V191.465H243.232V189.837ZM241.604 189.837H243.232V191.465H241.604V189.837ZM243.232 191.465H244.86V193.093H243.232V191.465ZM241.604 183.326H243.232V184.953H241.604V183.326ZM243.232 184.953H244.86V186.581H243.232V184.953ZM241.604 184.953H243.232V186.581H241.604V184.953ZM244.86 186.581H246.488V188.209H244.86V186.581ZM244.86 188.209H246.488V189.837H244.86V188.209ZM244.86 189.837H246.488V191.465H244.86V189.837ZM239.976 193.093H241.604V194.721H239.976V193.093ZM238.348 193.093H239.976V194.721H238.348V193.093ZM236.721 193.093H238.348V194.721H236.721V193.093ZM235.093 193.093H236.721V194.721H235.093V193.093ZM235.093 194.721H236.721V196.349H235.093V194.721ZM236.721 194.721H238.348V196.349H236.721V194.721ZM238.348 194.721H239.976V196.349H238.348V194.721ZM239.976 194.721H241.604V196.349H239.976V194.721ZM241.604 193.093H243.232V194.721H241.604V193.093ZM241.604 194.721H243.232V196.349H241.604V194.721ZM244.86 191.465H246.488V193.093H244.86V191.465ZM235.093 186.581H236.721V188.209H235.093V186.581ZM233.465 184.953H235.093V186.581H233.465V184.953ZM235.093 183.326H236.721V184.953H235.093V183.326ZM254.613 209.372H256.241V211H254.613V209.372ZM256.241 209.372H257.869V211H256.241V209.372ZM252.985 207.744H254.613V209.372H252.985V207.744ZM254.613 207.744H256.241V209.372H254.613V207.744ZM256.241 207.744H257.869V209.372H256.241V207.744ZM257.869 207.744H259.497V209.372H257.869V207.744ZM251.357 206.116H252.985V207.744H251.357V206.116ZM252.985 206.116H254.613V207.744H252.985V206.116ZM252.985 204.488H254.613V206.116H252.985V204.488ZM254.613 204.488H256.241V206.116H254.613V204.488ZM254.613 206.116H256.241V207.744H254.613V206.116ZM256.241 206.116H257.869V207.744H256.241V206.116ZM257.869 206.116H259.497V207.744H257.869V206.116ZM257.869 204.488H259.497V206.116H257.869V204.488ZM259.497 206.116H261.125V207.744H259.497V206.116ZM256.241 204.488H257.869V206.116H256.241V204.488ZM254.613 202.86H256.241V204.488H254.613V202.86ZM256.241 202.86H257.869V204.488H256.241V202.86ZM257.869 202.86H259.497V204.488H257.869V202.86ZM257.869 201.233H259.497V202.86H257.869V201.233ZM256.241 201.233H257.869V202.86H256.241V201.233ZM254.613 201.233H256.241V202.86H254.613V201.233ZM254.613 199.605H256.241V201.233H254.613V199.605ZM254.613 197.977H256.241V199.605H254.613V197.977ZM254.613 196.349H256.241V197.977H254.613V196.349ZM254.613 194.721H256.241V196.349H254.613V194.721ZM254.613 193.093H256.241V194.721H254.613V193.093ZM256.241 193.093H257.869V194.721H256.241V193.093ZM257.869 193.093H259.497V194.721H257.869V193.093ZM257.869 194.721H259.497V196.349H257.869V194.721ZM257.869 196.349H259.497V197.977H257.869V196.349ZM257.869 197.977H259.497V199.605H257.869V197.977ZM256.241 197.977H257.869V199.605H256.241V197.977ZM256.241 199.605H257.869V201.233H256.241V199.605ZM256.241 196.349H257.869V197.977H256.241V196.349ZM256.241 194.721H257.869V196.349H256.241V194.721ZM257.869 199.605H259.497V201.233H257.869V199.605ZM257.869 191.465H259.497V193.093H257.869V191.465ZM257.869 189.837H259.497V191.465H257.869V189.837ZM257.869 188.209H259.497V189.837H257.869V188.209ZM257.869 186.581H259.497V188.209H257.869V186.581ZM254.613 184.953H256.241V186.581H254.613V184.953ZM256.241 186.581H257.869V188.209H256.241V186.581ZM256.241 188.209H257.869V189.837H256.241V188.209ZM256.241 189.837H257.869V191.465H256.241V189.837ZM256.241 191.465H257.869V193.093H256.241V191.465ZM254.613 191.465H256.241V193.093H254.613V191.465ZM254.613 189.837H256.241V191.465H254.613V189.837ZM254.613 188.209H256.241V189.837H254.613V188.209ZM254.613 186.581H256.241V188.209H254.613V186.581ZM252.985 202.86H254.613V204.488H252.985V202.86ZM252.985 201.233H254.613V202.86H252.985V201.233ZM252.985 199.605H254.613V201.233H252.985V199.605ZM252.985 197.977H254.613V199.605H252.985V197.977ZM252.985 196.349H254.613V197.977H252.985V196.349ZM252.985 194.721H254.613V196.349H252.985V194.721ZM252.985 193.093H254.613V194.721H252.985V193.093ZM252.985 191.465H254.613V193.093H252.985V191.465ZM252.985 189.837H254.613V191.465H252.985V189.837ZM252.985 188.209H254.613V189.837H252.985V188.209ZM252.985 184.953H254.613V186.581H252.985V184.953ZM252.985 186.581H254.613V188.209H252.985V186.581ZM251.357 186.581H252.985V188.209H251.357V186.581ZM249.729 188.209H251.357V189.837H249.729V188.209ZM251.357 188.209H252.985V189.837H251.357V188.209ZM249.729 204.488H251.357V206.116H249.729V204.488ZM251.357 204.488H252.985V206.116H251.357V204.488ZM249.729 186.581H251.357V188.209H249.729V186.581ZM259.497 204.488H261.125V206.116H259.497V204.488ZM249.729 206.116H251.357V207.744H249.729V206.116ZM252.985 209.372H254.613V211H252.985V209.372ZM251.357 184.953H252.985V186.581H251.357V184.953ZM259.497 184.953H261.125V186.581H259.497V184.953ZM261.125 183.326H262.753V184.953H261.125V183.326ZM261.125 184.953H262.753V186.581H261.125V184.953ZM262.753 184.953H264.381V186.581H262.753V184.953ZM262.753 183.326H264.381V184.953H262.753V183.326ZM264.381 183.326H266.009V184.953H264.381V183.326ZM264.381 184.953H266.009V186.581H264.381V184.953ZM266.009 184.953H267.636V186.581H266.009V184.953ZM266.009 183.326H267.636V184.953H266.009V183.326ZM267.636 184.953H269.264V186.581H267.636V184.953ZM264.381 186.581H266.009V188.209H264.381V186.581ZM262.753 186.581H264.381V188.209H262.753V186.581ZM264.381 188.209H266.009V189.837H264.381V188.209ZM266.009 188.209H267.636V189.837H266.009V188.209ZM267.636 188.209H269.264V189.837H267.636V188.209ZM267.636 186.581H269.264V188.209H267.636V186.581ZM266.009 186.581H267.636V188.209H266.009V186.581ZM254.613 183.326H256.241V184.953H254.613V183.326ZM252.985 183.326H254.613V184.953H252.985V183.326ZM259.497 186.581H261.125V188.209H259.497V186.581ZM257.869 184.953H259.497V186.581H257.869V184.953ZM259.497 183.326H261.125V184.953H259.497V183.326Z" fill="white"/>
</svg>
